<?xml version="1.0" encoding="UTF-8" standalone="no"?>
<svg xmlns:rdf="http://www.w3.org/1999/02/22-rdf-syntax-ns#" xmlns="http://www.w3.org/2000/svg" version="1.1" xmlns:cc="http://creativecommons.org/ns#" xmlns:xlink="http://www.w3.org/1999/xlink" viewBox="100 200 1200 1200" xmlns:dc="http://purl.org/dc/elements/1.1/">
	<defs>
		<linearGradient id="c" y2="991.36" gradientUnits="userSpaceOnUse" x2="532.83" gradientTransform="translate(22,-18)" y1="57.362" x1="529.29">
			<stop stop-color="#9fc8ff" offset="0"/>
			<stop stop-color="#2a486e" offset="1"/>
		</linearGradient>
		<linearGradient id="b" y2="991.36" gradientUnits="userSpaceOnUse" x2="532.83" gradientTransform="matrix(.90454 -.30150 .30150 .90454 -242.39 179.39)" y1="57.362" x1="529.29">
			<stop stop-color="#b8c4d4" offset="0"/>
			<stop stop-color="#5e6b7c" offset="1"/>
		</linearGradient>
		<linearGradient id="a" y2="991.36" gradientUnits="userSpaceOnUse" x2="532.83" gradientTransform="matrix(.69454 -.54020 .54020 .69454 -372.81 404.73)" y1="57.362" x1="529.29">
			<stop stop-color="#d7dbe1" offset="0"/>
			<stop stop-color="#5e6b7c" offset="1"/>
		</linearGradient>
		<clipPath id="g" clipPathUnits="userSpaceOnUse">
			<path d="m0.06 162.54h199.94v-162.48h-199.94v162.48z"/>
		</clipPath>
		<filter id="f" height="1.5" width="1.5" color-interpolation-filters="sRGB" y="-.25" x="-.25">
			<feGaussianBlur result="blur" stdDeviation="40" in="SourceAlpha"/>
			<feColorMatrix values="1 0 0 0 0 0 1 0 0 0 0 0 1 0 0 0 0 0 0.5 0 " type="matrix" result="bluralpha"/>
			<feOffset result="offsetBlur" dy="50" dx="15" in="bluralpha"/>
			<feMerge>
				<feMergeNode in="offsetBlur"/>
				<feMergeNode in="SourceGraphic"/>
			</feMerge>
		</filter>
		<filter id="e" height="1.5" width="1.5" color-interpolation-filters="sRGB" y="-.25" x="-.25">
			<feGaussianBlur result="blur" stdDeviation="40" in="SourceAlpha"/>
			<feColorMatrix values="1 0 0 0 0 0 1 0 0 0 0 0 1 0 0 0 0 0 0.5 0 " type="matrix" result="bluralpha"/>
			<feOffset result="offsetBlur" dy="50" dx="15" in="bluralpha"/>
			<feMerge>
				<feMergeNode in="offsetBlur"/>
				<feMergeNode in="SourceGraphic"/>
			</feMerge>
		</filter>
		<filter id="d" height="1.5" width="1.5" color-interpolation-filters="sRGB" y="-.25" x="-.25">
			<feGaussianBlur result="blur" stdDeviation="40" in="SourceAlpha"/>
			<feColorMatrix values="1 0 0 0 0 0 1 0 0 0 0 0 1 0 0 0 0 0 0.5 0 " type="matrix" result="bluralpha"/>
			<feOffset result="offsetBlur" dy="50" dx="15" in="bluralpha"/>
			<feMerge>
				<feMergeNode in="offsetBlur"/>
				<feMergeNode in="SourceGraphic"/>
			</feMerge>
		</filter>
	</defs>
	<g transform="translate(186.62 223.49)">
		<path d="m114 93.386c-9.8073 7.6279-16.753 19.025-18.423 32.385l-82.358 659.48c-3.34 26.719 20.115 49.077 20.115 49.077l155.08 199.37c17.231 22.154 28.308 13.538 39.385 4.9232l199.39-155.08s28.237-15.896 31.577-42.616l82.51-659.46c3.3399-26.719-15.483-50.92-42.202-54.26l-349.24-43.611c-13.36-1.67-26.029 2.1894-35.837 9.8174zm59.346 740.23c36.707-28.55 89.758-21.919 118.31 14.788 28.55 36.707 21.851 89.672-14.856 118.22-36.707 28.55-89.605 21.938-118.15-14.77-28.55-36.707-22.005-89.691 14.702-118.24zm5.3173 6.8366c-32.942 25.622-38.805 73.145-13.183 106.09 25.622 32.942 73.058 38.872 106 13.25s38.958-73.126 13.337-106.07c-25.622-32.942-73.212-38.891-106.15-13.269zm14.135 18.173c22.903-17.813 56.033-13.672 73.846 9.2307s13.605 55.947-9.298 73.76-55.88 13.691-73.693-9.2118-13.758-55.966 9.1444-73.779z" filter="url(#f)" stroke="url(#a)" stroke-width="5.2793" fill="#9ca4b0"/>
		<path d="m367.34 36.826c-12.773 4.2573-23.981 13.398-30.506 26.447l-322 644.17c-13.05 26.098 2.8542 57.404 2.8542 57.404l86.552 259.67c9.6169 28.852 24.043 24.044 38.469 19.235l259.67-86.552s34.587-6.0593 47.637-32.157l322.15-644.04c13.05-26.098 2.5444-57.616-23.554-70.666l-341.12-170.56c-13.049-6.5248-27.387-7.1507-40.16-2.8934zm-206.33 777.8c47.806-15.934 99.624 9.9755 115.56 57.781 15.934 47.806-10.013 99.511-57.819 115.45-47.806 15.934-99.473-9.9008-115.41-57.706-15.934-47.806 9.8628-99.586 57.669-115.52zm2.9677 8.9036c-42.903 14.3-66.033 60.746-51.733 103.65 14.3 42.903 60.634 66.07 103.54 51.77 42.903-14.3 66.183-60.671 51.883-103.57-14.3-42.902-60.784-66.145-103.69-51.845zm7.8889 23.668c29.828-9.942 62.188 6.2388 72.13 36.066 9.9419 29.828-6.2763 62.075-36.104 72.017-29.827 9.9419-62.038-6.1639-71.98-35.991-9.9419-29.827 6.1261-62.15 35.954-72.092z" filter="url(#e)" stroke="url(#b)" stroke-width="5.7208" fill="#7187a7"/>
		<path d="m675.96 42.362c-14.121 0-28.304 5.378-39.124 16.198l-534.03 534.16c-21.64 21.64-16.198 58.063-16.198 58.063v287.08c0 31.897 15.949 31.897 31.897 31.897h287.08s36.423 5.4417 58.063-16.198l534.15-534.04c21.64-21.64 21.64-56.484 0-78.124l-282.84-282.84c-10.82-10.82-24.88-16.198-39-16.198zm-463.26 705.48c52.851 0 95.817 42.966 95.817 95.817s-42.966 95.692-95.817 95.692-95.692-42.841-95.692-95.692 42.841-95.817 95.692-95.817zm0 9.8433c-47.43 0-85.849 38.543-85.849 85.973 0 47.431 38.418 85.849 85.849 85.849 47.43 0 85.973-38.418 85.973-85.849 0-47.43-38.543-85.973-85.973-85.973zm0 26.166c32.975 0 59.808 26.832 59.808 59.807s-26.832 59.683-59.808 59.683c-32.975 0-59.683-26.708-59.683-59.683s26.707-59.807 59.683-59.807z" filter="url(#d)" stroke="url(#c)" stroke-width="6" fill="#4a6c9a"/>
	</g>
	<g transform="translate(186.62 251.89)">
		<g transform="matrix(1.5852 0 0 -1.5852 513.43 510.87)">
			<g clip-path="url(#g)">
				<path d="m200 143.3c-7.358-3.264-15.267-5.47-23.566-6.461 8.47 5.078 14.977 13.119 18.041 22.701-7.929-4.703-16.71-8.117-26.057-9.957-7.484 7.975-18.148 12.957-29.95 12.957-22.66 0-41.033-18.371-41.033-41.031 0-3.216 0.363-6.348 1.063-9.351-34.102 1.711-64.337 18.047-84.574 42.872-3.532-6.06-5.556-13.109-5.556-20.629 0-14.236 7.244-26.795 18.254-34.153-6.726 0.213-13.053 2.059-18.585 5.132-0.004-0.171-0.004-0.342-0.004-0.516 0-19.88 14.144-36.464 32.915-40.234-3.443-0.938-7.068-1.44-10.81-1.44-2.644 0-5.215 0.258-7.72 0.737 5.209-16.305 20.362-28.169 38.318-28.499-14.043-11.006-31.735-17.566-50.96-17.566-3.312 0-6.578 0.195-9.788 0.574 18.159-11.642 39.727-18.436 62.899-18.436 75.473 0 116.75 62.524 116.75 116.75 0 1.779-0.041 3.548-0.12 5.308 8.018 5.786 14.974 13.012 20.475 21.241" fill="#fff"/>
			</g>
		</g>
	</g>
</svg>
