<!-- Created with Inkscape (http://www.inkscape.org/) -->
<svg xmlns:rdf="http://www.w3.org/1999/02/22-rdf-syntax-ns#" xmlns="http://www.w3.org/2000/svg" version="1.1" xmlns:cc="http://creativecommons.org/ns#" xmlns:xlink="http://www.w3.org/1999/xlink" viewBox="0 0 1024 1024" xmlns:dc="http://purl.org/dc/elements/1.1/">
<defs>
<linearGradient id="linearGradient15066" y2="12.856" gradientUnits="userSpaceOnUse" x2="554.98" gradientTransform="matrix(0.98710898,0,0,0.98710898,9.0213472,1.3258479)" y1="979.23" x1="554.98">
<stop stop-color="#1d519f" offset="0"/>
<stop stop-color="#0090b4" offset="1"/>
</linearGradient>
<linearGradient id="linearGradient15071" y2="1024" gradientUnits="userSpaceOnUse" x2="1024" x1="1024">
<stop stop-color="#bff2ff" offset="0"/>
<stop stop-color="#dbe9ff" offset="1"/>
</linearGradient>
<clipPath id="clipPath5321" clipPathUnits="userSpaceOnUse">
<rect rx="230" ry="230" height="1024" width="1024" stroke="#000" y="0" x="0" fill="none"/>
</clipPath>
</defs>
<metadata>
<rdf:RDF>
<cc:Work rdf:about="">
<dc:format>image/svg+xml</dc:format>
<dc:type rdf:resource="http://purl.org/dc/dcmitype/StillImage"/>
<dc:title/>
</cc:Work>
</rdf:RDF>
</metadata>
<g display="none">
<rect id="rect4237" clip-path="none" height="1024" width="1024" y="0" x="0" fill="url(#linearGradient15071)"/>
</g>
<use clip-path="url(#clipPath5321)" xlink:href="#rect4237" y="0" x="0"/>
<path d="M132.93,125.98c-33.28,210.11-94.151,594.43-96.902,611.8-6.0681,38.312,15.485,67.977,15.485,67.977l105.41,145.08c58.585,80.635,98.771,51.554,139.35,22.071l145.08-105.41s29.653-21.531,35.725-59.866c2.7503-17.365,63.517-401.02,96.744-610.81,6.1285-38.693-21.181-76.282-59.874-82.41-99.918-15.826-199.84-31.652-299.75-47.477-39.102-6.1933-75.069,19.938-81.263,59.04zm58.786,648.65c40.226-29.226,96.688-20.283,125.91,19.943,29.226,40.226,20.214,96.593-20.012,125.82-40.226,29.226-96.524,20.309-125.75-19.918-29.226-40.226-20.378-96.619,19.848-125.84zm6.5443,9.0075c-35.264,25.62-43.007,75.029-17.387,110.29,25.621,35.264,74.936,43.075,110.2,17.455,35.264-25.621,43.167-75.004,17.547-110.27-25.62-35.25-75.1-43.09-110.36-17.47zm21.618,29.733c18.839-13.687,45.306-9.4954,58.993,9.3438s9.4438,45.235-9.3954,58.922-45.183,9.5147-58.871-9.3245c-13.687-18.839-9.5665-45.254,9.2727-58.942z" clip-path="none" fill="#67d2ff"/>
<path d="M339.8,57.27c-99.1,205.55-280.36,581.53-288.55,598.52-18.069,37.48-5.0935,74.612-5.0935,74.612l63.457,181.59c35.269,100.93,85.534,83.471,136.33,65.722l181.59-63.457s37.112-12.956,55.192-50.46c8.1897-16.988,189.14-392.32,288.07-597.55,18.249-37.853,1.8079-84.902-36.045-103.15-97.75-47.11-195.5-94.239-293.25-141.36-38.25-18.442-83.27-2.711-101.71,35.543zm-140.01,684.47c50.35-17.594,105.59,9.0344,123.18,59.385,17.594,50.35-9.0758,105.47-59.426,123.06-50.35,17.594-105.43-8.9576-123.02-59.308-17.594-50.35,8.9158-105.54,59.266-123.14zm3.9398,11.274c-44.139,15.424-67.357,63.785-51.933,107.92,15.424,44.139,63.669,67.398,107.81,51.974,44.139-15.424,67.513-63.71,52.09-107.85-15.43-44.12-63.83-67.45-107.97-52.03zm13.022,37.221c23.581-8.24,49.473,4.2425,57.713,27.823,8.24,23.581-4.2736,49.384-27.854,57.624-23.581,8.24-49.353-4.1847-57.593-27.765s4.1534-49.442,27.734-57.682z" clip-path="none" fill="#38a4ee"/>
<path d="M610.54,38.983c-178.87,178.88-506.06,506.06-520.84,520.85-32.616,32.616-32.616,76.22-32.616,76.22v213.25c0,118.52,58.988,118.63,118.63,118.63h213.25s43.577,0.0128,76.213-32.623c14.783-14.783,341.4-341.4,520-520,32.941-32.941,32.941-88.191,0-121.13l-255.19-255.19c-33.289-33.289-86.155-33.289-119.44,0zm-396.82,665.12c59.127,0,107.19,48.067,107.19,107.19,0,59.127-48.067,107.06-107.19,107.06-59.127,0-107.05-47.928-107.05-107.06,0-59.127,47.928-107.19,107.05-107.19zm0,13.24c-51.833,0-93.817,42.12-93.817,93.953s41.984,93.817,93.817,93.817,93.953-41.984,93.953-93.817-42.12-93.953-93.953-93.953zm0.0159,43.714c27.691,0,50.223,22.532,50.223,50.223s-22.532,50.119-50.223,50.119-50.118-22.428-50.118-50.119,22.427-50.223,50.118-50.223z" clip-path="none" fill="url(#linearGradient15066)"/>
</svg>
